<svg height="512pt" viewBox="-59 0 512 512.37077" width="512pt" xmlns="http://www.w3.org/2000/svg"><path d="m374.3125 350.125c-34.132812 68.269531-110.933594 59.734375-110.933594 59.734375h-22.613281l-94.632813-170.324219c12.496094-32.5625 29.253907-63.324218 49.835938-91.476562l93.523438-14.421875 25.769531-4.011719c2.550781 5.445312 5.546875 10.667969 8.960937 15.617188 39.511719 56.234374 84.992188 135.082031 50.089844 204.882812zm0 0" fill="#ad1457"/><path d="m346.496094 350.125c-17.996094 35.320312-53.664063 58.164062-93.269532 59.734375h-12.460937l-94.632813-170.324219c12.496094-32.5625 29.253907-63.324218 49.835938-91.476562l93.523438-14.421875c2.039062 4.019531 4.347656 7.898437 6.914062 11.605469 39.507812 56.234374 84.992188 135.082031 50.089844 204.882812zm0 0" fill="#e91e63"/><g fill="#8bc34a"><path d="m314.257812 205.382812c-11.792968 3.59375-16.453124 19.808594-17.871093 30.472657-1.335938 12.484375-.957031 25.089843 1.128906 37.472656 2.644531 18.488281 5.699219 40.539063 17.066406 56.054687 7.238281 9.027344 19.8125 11.742188 30.128907 6.511719 17.808593-9.03125 14.507812-29.167969 7.816406-44.527343-7.347656-13.820313-16.015625-26.898438-25.878906-39.050782-4.621094-6.421875-8.390626-13.414062-11.214844-20.804687-2.382813-8.503907-2.785156-17.441407-1.175782-26.128907zm0 0"/><path d="m195.113281 248.066406c-.085937-.082031-.167969-.167968-.167969-.253906-7.613281-8.867188-11.28125-20.453125-10.15625-32.085938 1.441407-15.578124 4.386719-30.980468 8.789063-45.996093 1.789063-7.714844 2.5625-15.632813 2.304687-23.550781-.292968-4.796876-1.507812-9.492188-3.585937-13.824219-1.535156-3.582031-3.328125-6.996094-5.375-10.75 12.289063-1.195313 22.785156 11.945312 28.246094 21.160156 6.011719 11.050781 10.546875 22.839844 13.480469 35.074219 5.265624 19.539062 13.3125 43.261718 1.871093 62.292968-1.867187 3.171876-4.292969 5.976563-7.167969 8.277344-2.5625 2.0625-5.480468 3.804688-8.183593 5.742188zm0 0"/><path d="m248.449219 133.234375-2.050781-40.386719c-.191407-10.421875.496093-20.839844 2.050781-31.148437.425781-3.414063.851562-6.824219 1.449219-10.238281 1.226562-7.332032 3.230468-14.511719 5.972656-21.417969 3.585937-8.621094 11.09375-21.078125 21.761718-21.503907-3.257812 6.933594-4.890624 14.523438-4.78125 22.183594.671876 6.835938 2.25 13.550782 4.695313 19.96875.167969.425782.339844.9375.511719 1.367188.597656 1.535156 5.289062 13.738281 9.898437 25.855468l-21.503906 83.027344zm0 0"/></g><path d="m308.863281 165.039062c-3.160156 5.898438-8.621093 10.226563-15.089843 11.957032-6.464844 1.730468-13.359376.707031-19.042969-2.828125-12.375-7.507813-12.628907-24.402344-9.558594-38.3125 4.441406-14.632813 10.273437-28.804688 17.410156-42.328125 1.195313-2.898438 2.386719-5.886719 3.410157-8.957032 1.539062-4.261718 2.65625-8.664062 3.328124-13.140624.6875-8.605469-.625-17.25-3.839843-25.261719 12.035156 1.195312 19.542969 15.789062 22.957031 25.773437 3.628906 11.703125 5.667969 23.84375 6.058594 36.09375 1.023437 18.261719 2.304687 39.9375-5.632813 57.003906zm0 0" fill="#558b30"/><path d="m283.007812 165.039062c-1.78125 3.804688-4.667968 6.984376-8.277343 9.128907-12.375-7.507813-12.628907-24.402344-9.558594-38.3125 4.441406-14.632813 10.273437-28.804688 17.410156-42.328125 1.195313-2.898438 2.386719-5.886719 3.410157-8.957032 1.457031 7.746094 2.371093 15.589844 2.734374 23.464844 1.023438 18.261719 2.300782 39.9375-5.71875 57.003906zm0 0" fill="#8bc34a"/><path d="m219.792969 151.820312c0-1.785156-2.066407-4.136718-2.765625-5.792968-1.011719-2.382813-1.847656-4.832032-2.507813-7.332032-1.285156-4.929687-2.019531-9.984374-2.195312-15.078124-.175781-9.121094.472656-18.242188 1.9375-27.246094 1.203125-11.726563 4.019531-23.234375 8.363281-34.195313 1.886719-4.613281 4.597656-8.84375 8.003906-12.480469 3.441406-3.660156 8.019532-6.042968 12.988282-6.769531-5.195313 10.378907-6.199219 22.359375-2.808594 33.460938 2.773437 11.09375 7.910156 21.519531 11.710937 32.347656 4.40625 10.679687 5.605469 22.410156 3.453125 33.757813-.9375 4.308593-3.0625 8.269531-6.132812 11.4375-6.207032 5.648437-15.089844 7.273437-22.894532 4.1875-3.253906-1.476563-4.617187-4.128907-7.152343-6.324219" fill="#8bc34a"/><path d="m87.210938 488.085938c-40.046876-25.890626-104.578126-84.121094-66.894532-174.585938 13.601563-37.398438 46.101563-64.714844 85.28125-71.679688 46.183594-8.882812 95.113282 6.65625 115.824219 14.585938.113281.101562.113281.101562.214844.101562zm0 0" fill="#ad1457"/><path d="m234.261719 261.609375c-38.289063-22.105469-99.765625 12.679687-137.304688 77.703125-37.539062 65.019531-36.929687 135.652344 1.363281 157.761719 38.289063 22.105469 99.765626-12.679688 137.304688-77.703125 37.539062-65.019532 36.929688-135.652344-1.363281-157.761719zm0 0" fill="#e91e63"/><path d="m119.234375 472.023438c-1.863281.144531-3.726563-.242188-5.382813-1.109376-4.265624-2.4375-8.832031-12.796874-8.984374-29.863281 1.082031-29.214843 9.636718-57.660156 24.847656-82.621093 28.304687-49.042969 66.203125-71.101563 84.070312-71.101563 1.867188-.140625 3.734375.25 5.394532 1.121094 4.222656 2.4375 8.832031 12.796875 8.984374 29.863281-.664062 29.132812-8.851562 57.597656-23.765624 82.628906-28.320313 49.023438-67.3125 71.082032-85.164063 71.082032zm0 0" fill="#cfd8dc"/><path d="m289.152344 275.085938c2.679687 18.832031 6.03125 42.265624 18.585937 59.347656 6.195313 8.050781 15.824219 12.707031 25.984375 12.570312 5.164063.015625 10.261719-1.183594 14.878906-3.5 18.476563-9.386718 22.878907-30.140625 11.777344-55.558594-5.074218-10.582031-11.375-20.527343-18.773437-29.636718-2.6875-3.585938-5.382813-7.160156-7.917969-10.828125-4.210938-5.808594-7.652344-12.132813-10.242188-18.816407-1.835937-6.578124-2.160156-13.488281-.945312-20.207031l.214844-2.304687c.253906-2.828125-.917969-5.597656-3.121094-7.390625-2.203125-1.789063-5.15625-2.363281-7.871094-1.535157-17.742187 5.410157-22.589844 28.03125-23.84375 37.503907-1.421875 13.445312-.996094 27.023437 1.273438 40.355469zm15.683594-38.101563c.308593-2.300781.742187-4.578125 1.304687-6.828125.363281 1.441406.792969 2.867188 1.296875 4.265625 3.082031 8.082031 7.203125 15.726563 12.261719 22.742187 2.664062 3.867188 5.488281 7.628907 8.3125 11.390626 6.585937 8.066406 12.214843 16.867187 16.777343 26.226562 5.121094 11.78125 8.652344 27.152344-3.855468 33.492188-6.59375 3.375-14.644532 1.738281-19.398438-3.941407-10.019531-13.65625-12.902344-33.835937-15.53125-52.21875-2.015625-11.597656-2.410156-23.421875-1.167968-35.128906zm0 0"/><path d="m81.679688 494.65625c3.648437 3.824219 7.8125 7.125 12.367187 9.804688 4.992187 2.855468 10.386719 4.953124 16 6.21875l1.925781.855468c1.078125.472656 2.238282.71875 3.414063.726563.726562-.007813 1.449219-.113281 2.152343-.308594 2.3125.265625 4.640626.402344 6.96875.417969 39.597657 0 86.699219-33.707032 118.46875-88.746094 1.007813-1.75 1.871094-3.5 2.824219-5.25h17.179688c1.117187.09375 3.820312.273438 7.730469.273438 21.9375 0 81.699218-5.699219 111.207031-64.722657 37.007812-74.039062-11.238281-157.363281-50.707031-213.539062-2.8125-4.132813-5.324219-8.460938-7.507813-12.953125 0-6.828125-.359375-13.585938-.707031-19.867188-.417969-13.035156-2.605469-25.953125-6.503906-38.398437-3.03125-8.875-12.023438-29.714844-30.175782-31.523438-1.25-.109375-2.511718.058594-3.691406.496094-.652344-2.683594-1.085938-5.410156-1.308594-8.160156-.023437-5.847657 1.25-11.625 3.730469-16.921875l.597656-1.628906c.964844-2.664063.546875-5.632813-1.117187-7.925782-1.65625-2.328125-4.386719-3.648437-7.238282-3.4921872-16.683593.6679692-26.042968 18.9257812-29.320312 26.8125002-1.007812 2.472656-1.824219 5.121093-2.652344 7.789062-.878906-.183593-1.777344-.234375-2.671875-.144531-6.902343.9375-13.28125 4.1875-18.089843 9.226562-4.144532 4.378907-7.445313 9.480469-9.746094 15.050782-4.65625 11.679687-7.6875 23.941406-9.003906 36.445312-.851563 6.027344-1.703126 12.800782-1.960938 19.765625-.308594.851563-.613281 1.636719-.9375 2.457031-4.988281-3.222656-10.894531-4.71875-16.8125-4.265624-2.851562.273437-5.375 1.964843-6.71875 4.5-1.339844 2.53125-1.320312 5.570312.054688 8.085937 2.03125 3.71875 3.667968 6.828125 5.121093 10.238281 1.460938 3.085938 2.359375 6.40625 2.660157 9.804688-18.902344 26.414062-34.632813 54.960937-46.855469 85.054687-12.1875-.441406-24.386719.464844-36.378907 2.695313-41.984374 7.453125-76.84375 36.660156-91.535156 76.6875-39.65625 95.078125 25.890625 156.167968 69.238282 184.441406zm234.878906-325.972656c1.917968-4.199219 3.394531-8.582032 4.414062-13.082032 38.921875 56.320313 77.261719 127.632813 45.703125 190.753907-30.964843 61.941406-99.445312 55.378906-102.355469 55.066406-.3125-.050781-.625-.082031-.941406-.09375h-9.0625c28.214844-63.019531 22.675782-124.894531-15.792968-147.109375-1.933594-1.066406-3.929688-2.019531-5.972657-2.855469 2.011719-2.078125 3.789063-4.367187 5.308594-6.828125 12.386719-20.582031 5.734375-44.679687.382813-64.050781l-1.316407-4.863281c-.636719-2.363282-1.355469-4.847656-2.097656-7.339844 7.761719.03125 15.246094-2.890625 20.941406-8.167969.109375-.101562.195313-.230469.296875-.332031 2.554688 15.351562 15.832032 26.609375 31.394532 26.617188 12.289062.097656 23.570312-6.785157 29.097656-17.757813zm-31.988282-59.207032c2.003907-4.164062 4-8.335937 5.820313-12.558593 3.503906-7.691407 5.984375-15.808594 7.378906-24.140625.195313-1.222656.316407-2.425782.394531-3.59375.832032 1.808594 1.566407 3.660156 2.207032 5.546875 3.425781 11.125 5.335937 22.660156 5.675781 34.296875.964844 17.550781 2.058594 37.441406-4.914063 52.382812-3.441406 6.257813-10.742187 9.316406-17.613281 7.382813-13.046875-3.644531-12.613281-18.933594-9.949219-31.128907 2.566407-9.800781 6.257813-19.273437 11-28.230468zm-27.65625-46.675781c.40625-3.277343.851563-6.546875 1.378907-9.8125 1.125-6.71875 2.953125-13.296875 5.464843-19.628906.195313-.484375.40625-.972656.628907-1.457031.824219 7.679687 2.636719 15.226562 5.394531 22.441406 0 .050781.296875.792969.324219.855469.5625 1.421875 4.640625 12.046875 8.910156 23.242187-1.183594 3.984375-2.609375 7.894532-4.269531 11.707032-1.707032 4.019531-3.632813 7.980468-5.527344 11.949218-1.996094 4.144532-3.976562 8.386719-5.839844 12.714844l-.210937-.128906c-.734375-2.824219-1.511719-5.667969-2.5625-8.703125-1.414063-4.0625-3.027344-8.074219-4.632813-12.066407-.355468-.898437-.664062-1.707031-1.015625-2.621093-.074219-9.546875.578125-19.085938 1.957031-28.535157zm-36.0625 53.511719c.296876-6.285156.914063-12.550781 1.851563-18.773438 1.117187-10.949218 3.71875-21.699218 7.730469-31.949218l.058594-.125c.277343 4.382812.957031 8.734375 2.03125 12.996094 2.019531 7.414062 4.546874 14.683593 7.570312 21.75 1.511719 3.761718 3.027344 7.527343 4.367188 11.359374 3.898437 9.085938 5.023437 19.117188 3.234374 28.839844-.554687 2.75-1.855468 5.292969-3.753906 7.355469-3.707031 3.210937-8.847656 4.191406-13.472656 2.5625-.765625-.507813-1.4375-1.140625-1.988281-1.871094-.34375-.382812-.691407-.765625-1.042969-1.140625-.566406-1.363281-1.261719-2.667968-2.074219-3.902344-.203125-.324218-.40625-.628906-.503906-.792968-.839844-2.003906-1.539063-4.0625-2.097656-6.160156-1.121094-4.328126-1.761719-8.765626-1.910157-13.234376-.09375-2.125-.085937-4.269531 0-6.402343 0-.101563.050782-.195313.050782-.296875v-.085938c-.019532-.007812-.050782-.058594-.050782-.128906zm-22.144531 68.683594c1.132813-4.496094 2.269531-8.992188 3.226563-13.539063 1.957031-8.429687 2.789062-17.082031 2.472656-25.730469-.074219-1.480468-.230469-2.960937-.460938-4.429687 1.386719 1.847656 2.667969 3.765625 3.839844 5.753906 5.621094 10.402344 9.867188 21.492188 12.621094 32.988281l1.359375 4.949219c4.71875 17.066407 10.058594 36.40625 1.449219 50.6875-1.339844 2.292969-3.089844 4.316407-5.164063 5.976563-1.339843 1.066406-2.773437 2.019531-4.207031 2.976562-4.144531-1.390625-8.847656-2.851562-14.027344-4.265625-5.042968-7.117187-7.347656-15.8125-6.496094-24.492187.605469-10.457032 2.414063-20.8125 5.386719-30.855469zm9.53125 78.457031c7.613281-.117187 15.121094 1.789063 21.75 5.53125 33.570313 19.386719 32.769531 86.289063-1.757812 146.105469-34.523438 59.820312-92.089844 93.996094-125.652344 74.589844-15.785156-9.113282-24.617187-28.816407-24.847656-55.464844.824219-32.015625 10-63.257813 26.613281-90.632813 15.398438-28.074219 37.863281-51.640625 65.171875-68.359375 11.6875-7.167968 25.023437-11.210937 38.722656-11.753906zm-27.777343-75.765625c-2.429688 9.113281-3.839844 18.46875-4.207032 27.894531-.15625 6.609375.578125 13.214844 2.195313 19.625-6.46875-1.277343-13.246094-2.398437-20.308594-3.199219 6.324219-15.304687 13.785156-30.113281 22.320313-44.304687zm-152.277344 129.089844c12.621094-34.664063 42.714844-60.011719 79.019531-66.558594 23.511719-3.84375 47.546875-3.058594 70.757813 2.3125-5.804688 2.171875-11.433594 4.785156-16.835938 7.824219-29.957031 18.226562-54.628906 43.976562-71.558594 74.683593-18.136718 30.015626-28.097656 64.253907-28.902344 99.3125.042969 8.355469.984376 16.683594 2.804688 24.839844-32.800781-29.796875-62.445312-77.269531-35.285156-142.414062zm0 0"/><path d="m122.324219 354.171875c-15.964844 26.285156-24.914063 56.226563-25.992188 86.960937.164063 18.578126 5.121094 32.472657 13.242188 37.164063 2.957031 1.605469 6.292969 2.386719 9.652343 2.261719 23.78125 0 64.300782-26.453125 92.5625-75.359375 15.652344-26.359375 24.230469-56.320313 24.90625-86.96875-.160156-18.570313-5.117187-32.429688-13.242187-37.164063-2.964844-1.601562-6.300781-2.382812-9.667969-2.261718-23.253906 0-63.207031 26.410156-91.460937 75.367187zm91.460937-58.300781h1.050782c3.738281 6.875 5.402343 14.683594 4.792968 22.484375-.679687 27.609375-8.472656 54.578125-22.621094 78.292969-27.304687 47.226562-64.109374 66.828124-77.78125 66.828124-.410156 0-.734374 0-.914062 0h-.125c-3.730469-6.878906-5.394531-14.6875-4.789062-22.488281 1.082031-27.6875 9.238281-54.640625 23.6875-78.285156 28.886718-50.003906 64.761718-66.832031 76.699218-66.832031zm0 0"/><path d="m186.582031 333.058594c0 4.714844-3.820312 8.535156-8.535156 8.535156-4.710937 0-8.53125-3.820312-8.53125-8.535156 0-4.710938 3.820313-8.53125 8.53125-8.53125 4.714844 0 8.535156 3.820312 8.535156 8.53125zm0 0"/><path d="m178.046875 358.660156c0 4.710938-3.820313 8.53125-8.53125 8.53125-4.714844 0-8.535156-3.820312-8.535156-8.53125 0-4.714844 3.820312-8.535156 8.535156-8.535156 4.710937 0 8.53125 3.820312 8.53125 8.535156zm0 0"/><path d="m212.179688 315.992188c0 4.714843-3.820313 8.535156-8.53125 8.535156-4.714844 0-8.535157-3.820313-8.535157-8.535156 0-4.710938 3.820313-8.53125 8.535157-8.53125 4.710937 0 8.53125 3.820312 8.53125 8.53125zm0 0"/><path d="m203.648438 367.191406c0 4.714844-3.820313 8.535156-8.535157 8.535156-4.710937 0-8.53125-3.820312-8.53125-8.535156 0-4.710937 3.820313-8.53125 8.53125-8.53125 4.714844 0 8.535157 3.820313 8.535157 8.53125zm0 0"/><path d="m212.179688 341.59375c0 4.710938-3.820313 8.53125-8.53125 8.53125-4.714844 0-8.535157-3.820312-8.535157-8.53125 0-4.714844 3.820313-8.535156 8.535157-8.535156 4.710937 0 8.53125 3.820312 8.53125 8.535156zm0 0"/><path d="m160.980469 384.261719c0 4.710937-3.820313 8.53125-8.53125 8.53125-4.714844 0-8.535157-3.820313-8.535157-8.53125 0-4.714844 3.820313-8.535157 8.535157-8.535157 4.710937 0 8.53125 3.820313 8.53125 8.535157zm0 0"/><path d="m143.914062 409.859375c0 4.714844-3.820312 8.535156-8.535156 8.535156-4.710937 0-8.53125-3.820312-8.53125-8.535156 0-4.710937 3.820313-8.53125 8.53125-8.53125 4.714844 0 8.535156 3.820313 8.535156 8.53125zm0 0"/><path d="m186.582031 392.792969c0 4.714843-3.820312 8.535156-8.535156 8.535156-4.710937 0-8.53125-3.820313-8.53125-8.535156 0-4.710938 3.820313-8.53125 8.53125-8.53125 4.714844 0 8.535156 3.820312 8.535156 8.53125zm0 0"/><path d="m169.515625 418.394531c0 4.710938-3.820313 8.53125-8.535156 8.53125-4.710938 0-8.53125-3.820312-8.53125-8.53125 0-4.714843 3.820312-8.535156 8.53125-8.535156 4.714843 0 8.535156 3.820313 8.535156 8.535156zm0 0"/><path d="m143.914062 435.460938c0 4.710937-3.820312 8.53125-8.535156 8.53125-4.710937 0-8.53125-3.820313-8.53125-8.53125 0-4.714844 3.820313-8.535157 8.53125-8.535157 4.714844 0 8.535156 3.820313 8.535156 8.535157zm0 0"/><path d="m70.082031 310.820312c3.636719-3 4.152344-8.382812 1.148438-12.015624-3-3.636719-8.382813-4.152344-12.019531-1.148438-.910157.75-22.605469 18.976562-23.386719 60.839844-.046875 2.265625.8125 4.453125 2.382812 6.082031 1.570313 1.632813 3.722657 2.574219 5.988281 2.613281h.160157c4.652343.003906 8.445312-3.71875 8.535156-8.371094.613281-33.339843 16.375-47.296874 17.191406-48zm0 0"/><path d="m101.246094 281.859375c0 4.714844-3.820313 8.535156-8.53125 8.535156-4.714844 0-8.535156-3.820312-8.535156-8.535156 0-4.710937 3.820312-8.53125 8.535156-8.53125 4.710937 0 8.53125 3.820313 8.53125 8.53125zm0 0"/></svg>